<svg width="50" height="50" viewBox="0 0 50 50" fill="none" xmlns="http://www.w3.org/2000/svg">
<path d="M4.5 13.5H47.5V7.5L41.5 1.5H9.5L4.5 6.5V13.5Z" fill="white" stroke="black" stroke-width="3" stroke-linecap="round" stroke-linejoin="round"/>
<path d="M2.5 10.5V15.5H41.5V10.5H2.5Z" fill="white" stroke="black" stroke-width="3" stroke-linecap="round" stroke-linejoin="round"/>
<path d="M46.5 19.5L48.5 17.5V13.5L46.5 11.5H42.5L40.5 13.5V17.5L42.5 19.5H46.5Z" fill="white" stroke="black" stroke-width="3" stroke-linejoin="round"/>
<path d="M42 12V9L39 6H30" stroke="black" stroke-width="2" stroke-linecap="round" stroke-linejoin="round"/>
<path d="M5.5 48.5L9.5 40.5H25.5L21.5 48.5H5.5Z" fill="white" stroke="black" stroke-width="3" stroke-linecap="round" stroke-linejoin="round"/>
<path d="M46.5 29.5H3.5V40.5H46.5V29.5Z" fill="white" stroke="black" stroke-width="3" stroke-linecap="round" stroke-linejoin="round"/>
<path d="M19 46L18 48" stroke="black" stroke-width="2" stroke-linecap="round" stroke-linejoin="round"/>
<path d="M15 46L14 48M11 46L10 48" stroke="black" stroke-width="2" stroke-linecap="round" stroke-linejoin="round"/>
</svg>
