<svg width="25" height="25" viewBox="0 0 25 25" fill="none" xmlns="http://www.w3.org/2000/svg">
<g clip-path="url(#clip0_226_138)">
<path d="M24 11H20L23 8L21 6L16 11H14V9L19 4L17 2L14 5V1H11V5L8 2L6 4L11 9V11H9L4 6L2 8L5 11H1V14H5L2 17L4 19L9 14H11V16L6 21L8 23L11 20V24H14V20L17 23L19 21L14 16V14H16L21 19L23 17L20 14H24V11Z" fill="white" stroke="black" stroke-width="2" stroke-linejoin="round"/>
</g>
<defs>
<clipPath id="clip0_226_138">
<rect width="25" height="25" fill="white"/>
</clipPath>
</defs>
</svg>
